<?xml version="1.0" standalone="no"?>
<!DOCTYPE svg PUBLIC "-//W3C//DTD SVG 20010904//EN"
 "http://www.w3.org/TR/2001/REC-SVG-20010904/DTD/svg10.dtd">
<svg version="1.0" xmlns="http://www.w3.org/2000/svg"
 width="455.000000pt" height="437.000000pt" viewBox="0 0 455.000000 437.000000"
 preserveAspectRatio="xMidYMid meet">

<g transform="translate(0.000000,437.000000) scale(0.100000,-0.100000)"
fill="#000000" stroke="none">
<path d="M2477 3914 c-4 -4 -7 -15 -7 -25 0 -9 -18 -40 -41 -69 -22 -28 -47
-67 -55 -86 -19 -46 -68 -68 -131 -58 -37 5 -50 3 -74 -15 -16 -12 -34 -19
-39 -16 -6 4 -24 -1 -42 -9 -17 -9 -42 -16 -56 -16 -43 0 -94 -32 -121 -77
-23 -37 -30 -42 -62 -43 -20 0 -61 12 -93 28 -40 21 -56 25 -56 15 0 -23 83
-105 125 -124 48 -22 75 -25 57 -7 -20 20 -14 38 14 38 14 0 57 7 95 17 55 13
71 14 84 3 20 -17 10 -30 -26 -30 -32 0 -34 -3 -19 -31 14 -26 64 -50 130 -64
51 -11 55 -13 53 -39 -2 -34 -12 -46 -88 -109 -69 -58 -110 -110 -121 -152
-12 -53 -18 -55 -145 -55 -109 0 -120 2 -138 22 -31 33 -34 53 -11 90 22 36
25 73 10 113 -9 23 -7 30 12 45 18 14 23 30 26 88 4 65 2 73 -21 96 -35 35
-93 34 -189 0 -139 -50 -211 -101 -293 -208 -57 -74 -104 -183 -105 -238 0
-21 -19 -47 -80 -108 -70 -70 -88 -95 -146 -212 -173 -347 -352 -626 -497
-775 -34 -34 -57 -66 -53 -70 4 -4 43 -10 87 -12 64 -2 89 1 129 18 61 26 60
26 60 -4 0 -23 4 -25 44 -25 24 0 63 7 86 15 23 8 43 15 44 15 1 0 0 -20 -2
-45 -4 -40 -2 -45 17 -45 12 0 43 20 69 44 26 24 67 53 90 65 40 20 45 21 55
6 11 -14 17 -14 65 0 29 9 67 29 86 45 33 30 116 178 116 208 0 9 5 35 12 57
11 39 12 38 29 -82 18 -122 40 -187 62 -180 7 2 24 25 38 51 29 54 34 52 44
-17 4 -26 15 -57 24 -68 15 -18 18 -18 38 -4 12 8 34 38 49 65 15 27 31 47 36
44 5 -3 6 -130 2 -302 -7 -330 -4 -359 49 -419 55 -63 56 -63 477 -63 l380 0
0 -32 c0 -47 41 -128 83 -165 45 -39 46 -59 8 -139 -29 -61 -30 -62 -78 -68
-69 -9 -76 -9 -99 -1 -15 5 -29 -1 -50 -19 -26 -24 -27 -27 -11 -37 21 -12 22
-38 2 -45 -8 -4 -15 -11 -15 -17 0 -7 4 -7 12 1 19 19 28 14 28 -14 0 -23 3
-25 25 -20 29 7 48 -20 24 -35 -10 -6 -5 -12 21 -23 30 -12 36 -12 43 0 11 20
27 17 27 -5 0 -21 -23 -45 -33 -34 -4 3 -7 -2 -7 -12 0 -14 3 -16 11 -8 7 7
25 9 41 6 34 -7 72 23 83 65 3 14 15 37 26 50 13 17 19 40 19 76 0 67 28 125
96 199 40 43 54 66 54 88 0 16 5 38 12 49 10 16 7 26 -20 64 -61 85 -26 114
71 58 l48 -27 4 -124 c2 -68 -1 -135 -6 -149 -6 -15 -31 -51 -56 -82 -25 -30
-56 -76 -69 -102 -26 -50 -39 -125 -26 -145 13 -20 105 33 159 90 45 48 45 49
41 110 -4 51 -1 68 20 105 26 46 31 95 18 172 -6 34 -4 50 8 65 15 19 16 19
46 3 18 -10 48 -18 68 -18 20 0 54 -3 74 -6 33 -6 39 -11 48 -43 5 -20 10 -68
10 -108 l0 -71 -31 -7 c-23 -5 -35 -16 -45 -41 -10 -25 -21 -34 -38 -34 -25 0
-82 -25 -91 -41 -4 -5 1 -9 9 -9 9 0 16 -7 16 -15 0 -9 6 -12 15 -9 19 8 33
-25 16 -36 -9 -5 -6 -9 8 -13 12 -3 24 -1 27 4 10 17 34 9 34 -10 0 -27 20
-38 32 -17 14 24 31 19 26 -8 -4 -19 -1 -22 14 -18 10 2 18 8 18 13 0 4 13 23
28 41 16 18 32 41 35 51 4 9 18 22 31 27 14 5 32 20 41 34 16 23 16 29 1 68
-20 56 -36 149 -36 212 0 41 5 56 25 74 48 46 44 153 -7 182 -23 13 -32 13
-60 1 -43 -18 -77 -17 -97 3 -15 16 -14 18 9 37 14 11 59 37 101 59 42 21 90
51 108 65 76 65 111 186 76 265 -34 76 -147 120 -318 125 -72 2 -92 6 -110 23
-12 11 -38 23 -57 26 -53 11 -150 47 -150 57 0 5 4 9 9 9 5 0 11 17 15 38 3
25 16 48 35 65 16 14 42 47 57 73 l28 47 21 -69 c26 -84 55 -142 87 -171 36
-34 128 -72 193 -79 33 -4 77 -13 98 -20 28 -10 44 -11 58 -4 13 7 25 7 38 0
11 -5 28 -10 39 -10 10 0 29 -11 42 -25 13 -14 28 -25 35 -25 6 0 26 -13 45
-30 36 -30 78 -38 97 -19 8 8 27 4 70 -16 102 -49 193 -44 177 9 -4 12 -30 53
-59 91 -114 153 -140 209 -210 460 -53 188 -103 311 -195 479 -135 243 -228
355 -316 377 -35 9 -45 17 -50 38 -22 100 -72 164 -139 177 -26 4 -56 22 -87
49 -79 70 -187 84 -238 30 -36 -39 -32 -127 10 -201 27 -48 30 -61 21 -81 -6
-13 -11 -43 -11 -67 0 -76 -19 -88 -143 -94 -58 -2 -118 -2 -132 2 -26 7 -27
9 -23 59 2 29 17 79 33 112 25 54 29 74 35 210 5 90 4 160 -2 177 -8 23 -4 38
21 89 36 72 41 146 15 207 -9 20 -18 33 -19 27 -2 -5 -6 -22 -9 -37 -4 -16
-21 -38 -44 -53 l-37 -25 -6 70 c-5 67 -17 98 -32 84z m-12 -140 c-20 -51 -34
-65 -63 -57 -25 6 -20 18 38 95 29 38 36 42 38 26 2 -12 -4 -40 -13 -64z m150
-41 c-9 -23 -36 -65 -61 -92 -24 -27 -44 -56 -44 -65 0 -9 -11 -21 -25 -26
-14 -5 -25 -14 -25 -20 0 -6 12 -3 26 7 27 17 27 17 20 -7 -4 -14 -10 -33 -12
-42 -4 -12 0 -18 10 -18 9 0 16 -5 16 -11 0 -7 -11 -8 -31 -4 -20 5 -29 3 -25
-3 10 -16 57 -21 63 -6 9 24 31 15 42 -17 6 -18 11 -33 11 -35 0 -1 -17 -4
-37 -6 -43 -4 -55 -25 -19 -34 32 -8 47 -55 36 -115 -13 -69 -24 -90 -81 -152
l-54 -58 -57 31 -57 31 25 57 c40 88 39 94 -3 15 -28 -56 -42 -73 -59 -73 -11
0 -23 3 -26 6 -4 3 9 40 28 81 19 42 33 77 31 79 -2 2 -21 -33 -41 -79 -21
-45 -40 -76 -43 -69 -4 10 -7 10 -17 -1 -11 -15 -66 -32 -66 -22 0 3 9 24 21
46 33 65 14 56 -22 -10 -30 -55 -112 -131 -126 -117 -10 10 10 68 34 97 23 27
173 134 173 123 0 -3 -7 -20 -14 -39 -8 -19 -13 -35 -10 -35 8 0 74 147 74
164 0 9 7 16 15 16 20 0 19 13 -4 34 -11 10 -46 21 -84 26 -35 4 -75 14 -88
21 -22 13 -20 14 39 17 34 2 62 7 62 12 0 20 -70 60 -125 73 -68 15 -91 40
-61 63 26 18 73 18 110 -1 35 -19 50 -9 19 12 -13 9 -23 19 -23 24 0 12 47 11
71 -1 25 -14 24 -6 -3 20 l-23 21 50 -6 c42 -6 62 -2 113 19 34 14 68 26 77
26 24 0 18 -39 -8 -49 -13 -5 -29 -17 -37 -27 -14 -16 -13 -17 5 -9 11 4 33 9
50 9 25 1 30 6 36 36 5 25 21 46 55 75 26 22 59 52 73 66 26 26 26 27 34 6 5
-14 2 -37 -8 -64z m-945 -299 c0 -4 -7 -12 -16 -19 -15 -10 -13 -13 14 -18 18
-4 38 -17 48 -32 14 -22 15 -32 5 -65 -6 -21 -23 -48 -36 -58 -28 -22 -33 -37
-11 -29 23 9 30 -29 16 -79 -13 -44 -13 -44 -49 -38 -35 7 -36 6 -19 -13 10
-11 21 -34 24 -51 l7 -32 -60 0 c-33 0 -62 3 -65 6 -4 3 6 33 22 67 15 34 30
80 33 102 l6 40 -23 -50 -23 -50 3 65 c3 61 2 62 -6 20 -5 -25 -9 -64 -9 -87
-1 -24 -5 -43 -9 -43 -5 0 -7 37 -6 82 3 75 6 84 34 113 16 17 48 42 70 56 46
28 57 58 13 35 -16 -8 -45 -28 -67 -45 -21 -17 -43 -28 -49 -24 -5 3 -7 2 -4
-4 3 -5 -14 -36 -38 -69 -50 -66 -58 -90 -19 -53 l27 24 -7 -85 c-4 -55 -12
-90 -22 -100 -16 -16 -16 -9 7 80 20 77 6 70 -16 -9 -14 -46 -27 -86 -30 -89
-11 -12 -4 48 10 82 8 20 13 36 10 36 -3 0 -11 -13 -16 -30 -6 -16 -15 -28
-19 -25 -5 3 -14 -13 -21 -35 -8 -26 -16 -37 -22 -31 -6 6 -3 27 7 57 22 66
13 66 -18 0 -28 -59 -53 -76 -42 -28 12 49 64 150 105 204 48 65 117 122 133
112 6 -4 8 -3 4 4 -3 6 9 23 29 39 19 15 35 31 35 35 0 11 -81 -20 -121 -47
-40 -26 -137 -125 -156 -158 -42 -73 -91 -280 -73 -302 5 -6 -8 -34 -31 -70
-58 -87 -237 -449 -256 -517 -9 -31 -22 -59 -30 -62 -7 -2 -6 -3 4 -2 12 1 28
29 53 96 60 157 172 356 224 399 14 12 16 10 16 -15 0 -58 31 -187 51 -215 11
-16 31 -57 45 -90 13 -34 28 -67 33 -73 7 -8 5 -25 -4 -51 l-14 -40 -1 37 c0
33 -20 68 -20 36 -1 -45 -24 -161 -40 -206 -30 -80 -47 -110 -92 -158 -33 -35
-47 -44 -74 -44 l-34 0 6 43 c9 54 46 156 51 140 6 -16 33 -17 33 -3 0 6 -7
13 -15 16 -13 6 -13 11 5 41 11 20 20 37 18 38 -7 7 -46 -34 -78 -80 -19 -27
-37 -51 -42 -53 -4 -2 -8 -18 -8 -35 0 -24 -3 -28 -10 -17 -7 11 -10 -2 -11
-45 l-2 -60 -7 50 -7 50 -3 -55 -3 -55 -7 55 -7 55 -3 -55 c-2 -39 -4 -48 -9
-30 -4 17 -13 25 -28 26 -21 1 -23 -3 -24 -50 l-2 -51 -7 40 c-4 22 -8 32 -9
23 0 -10 -5 -18 -11 -18 -5 0 -11 -17 -11 -37 -1 -21 -4 -29 -6 -19 -4 15 -7
16 -14 5 -6 -10 -9 -8 -9 9 0 13 26 61 58 105 72 101 115 169 171 271 l44 78
14 -32 c7 -18 16 -30 20 -26 4 3 1 12 -5 18 -19 19 -14 68 23 212 19 75 35
149 34 164 l-1 27 -11 -31 c-7 -17 -18 -29 -24 -27 -7 3 -13 0 -13 -5 0 -6 5
-12 11 -14 8 -3 5 -20 -10 -53 -15 -35 -24 -46 -30 -36 -7 10 -10 10 -16 1 -4
-7 -2 -16 6 -21 11 -6 10 -14 -4 -43 -9 -20 -23 -36 -32 -36 -18 0 -20 -27 -3
-32 7 -3 -11 -45 -47 -111 -44 -81 -61 -104 -71 -96 -8 7 -15 6 -20 -2 -4 -7
-2 -15 4 -17 21 -7 13 -22 -70 -139 -69 -97 -89 -118 -126 -134 -52 -23 -71
-24 -78 -5 -3 9 21 41 64 83 53 52 74 82 92 128 22 59 41 213 21 170 -7 -15
-10 -8 -10 33 -1 28 4 52 9 52 6 0 10 -10 11 -22 0 -13 4 -32 8 -43 5 -12 7 8
5 50 -3 49 -1 64 5 50 8 -17 10 -13 11 20 1 32 3 36 10 20 7 -16 9 -12 10 20
l2 40 9 -44 c14 -72 19 -71 15 4 -2 39 -1 53 1 33 7 -63 18 -43 16 29 -1 47 1
57 5 34 4 -19 13 -36 20 -39 14 -4 16 14 2 23 -18 11 -10 76 17 133 22 48 28
53 35 36 7 -16 8 -15 4 6 -3 15 6 44 26 80 27 48 28 52 9 35 -13 -11 -30 -20
-39 -20 -12 0 -16 -7 -15 -22 2 -13 -12 -47 -31 -75 -18 -29 -50 -86 -70 -125
-20 -40 -38 -73 -40 -73 -8 0 105 285 129 326 34 57 115 142 121 127 3 -7 10
-13 16 -13 7 0 7 4 0 13 -7 9 -4 20 13 40 13 15 29 27 35 27 14 0 13 20 -2 21
-7 1 -2 5 12 9 25 8 25 8 2 9 -29 1 -19 21 11 22 17 1 18 2 5 6 -21 5 -21 8
-8 34 6 10 18 19 28 19 15 1 15 2 -2 15 -19 15 -19 15 2 15 12 0 22 5 22 10 0
6 -4 10 -10 10 -21 0 -9 20 13 21 12 0 16 3 10 6 -20 7 -15 23 7 23 13 0 18 5
14 15 -4 11 0 15 16 15 16 0 20 4 16 15 -3 9 0 15 9 15 8 0 15 7 15 15 0 8 5
15 11 15 6 0 20 11 31 25 28 36 104 78 168 91 65 14 90 16 90 8z m1349 -41
c44 -34 88 -104 109 -175 9 -32 21 -58 26 -58 8 0 6 25 -10 100 -7 35 -7 35
16 19 13 -9 32 -38 41 -65 23 -65 23 -77 0 -71 -10 2 -25 1 -32 -4 -10 -6 -7
-9 11 -9 14 0 32 -5 40 -10 11 -7 7 -10 -20 -11 l-35 -2 35 -7 35 -7 -35 -2
-35 -3 40 -13 c39 -13 39 -13 10 -15 l-30 -2 35 -11 c35 -11 35 -11 8 -15 -38
-5 -36 -22 2 -22 38 0 40 -20 3 -21 -16 0 -21 -3 -13 -6 46 -15 46 -15 25 -23
-18 -8 -18 -9 5 -9 19 -1 21 -4 11 -10 -12 -8 -12 -12 2 -25 8 -9 22 -16 30
-16 8 0 22 -12 32 -26 9 -14 33 -43 52 -65 20 -22 33 -43 29 -46 -4 -4 4 -13
16 -20 15 -8 18 -12 8 -13 -10 0 -4 -9 15 -26 17 -15 22 -23 13 -20 -10 3 -18
1 -18 -4 0 -6 5 -10 11 -10 5 0 7 -5 3 -12 -4 -6 5 -21 22 -35 20 -17 23 -22
9 -17 -16 6 -14 1 10 -26 27 -29 28 -31 6 -20 -19 10 -22 10 -15 -2 5 -7 9
-19 10 -26 2 -8 11 -20 21 -28 17 -13 17 -14 -2 -8 -15 4 -13 -1 10 -22 18
-17 23 -25 12 -21 -15 6 -17 3 -12 -16 4 -12 13 -29 21 -37 21 -22 18 93 -5
207 -23 112 -52 166 -137 261 -45 49 -71 87 -80 119 -21 68 -18 71 27 28 80
-78 204 -291 274 -473 16 -39 30 -70 32 -68 7 6 -80 223 -122 306 -61 121
-112 195 -176 254 -75 70 -55 73 28 6 73 -61 156 -158 149 -177 -3 -7 4 -17
15 -23 11 -6 17 -15 14 -21 -4 -5 1 -12 10 -15 9 -4 14 -13 11 -20 -3 -8 1
-14 9 -14 8 0 15 -4 15 -10 0 -5 -4 -10 -10 -10 -18 0 -10 -17 13 -28 14 -7
16 -11 7 -11 -10 -1 -5 -10 15 -27 29 -24 29 -25 5 -19 -24 7 -24 6 5 -20 28
-24 28 -25 5 -15 -23 10 -22 9 5 -15 22 -19 25 -24 10 -20 -16 5 -14 2 8 -17
33 -29 35 -43 5 -28 -19 9 -18 7 5 -12 34 -30 37 -54 5 -38 -18 9 -17 6 5 -10
15 -12 27 -27 27 -33 0 -8 -4 -7 -12 1 -26 26 -30 10 -5 -16 29 -30 37 -53 12
-32 -9 7 -18 10 -21 8 -3 -3 6 -15 20 -26 31 -24 34 -37 6 -22 -11 6 -20 7
-20 2 0 -5 11 -15 25 -22 14 -7 25 -18 25 -24 0 -6 -5 -5 -12 2 -27 27 -29 10
-2 -19 28 -31 28 -31 4 -20 -25 12 -25 12 3 -13 32 -29 35 -41 8 -26 -34 18
-37 11 -6 -16 22 -18 24 -22 8 -14 -31 15 -29 -3 2 -20 31 -17 33 -34 3 -25
-16 5 -13 0 10 -14 39 -25 41 -34 5 -21 l-28 10 25 -20 c17 -13 20 -20 10 -20
-10 0 -4 -9 15 -26 17 -15 22 -23 13 -20 -10 3 -18 1 -18 -4 0 -5 10 -12 21
-15 17 -6 19 -9 8 -16 -12 -8 -12 -11 1 -19 8 -5 20 -10 27 -10 6 0 15 -5 19
-11 4 -8 -1 -9 -17 -5 -16 5 -11 -1 14 -15 38 -24 53 -48 16 -29 -11 7 -23 9
-26 6 -3 -3 2 -8 11 -12 9 -3 16 -12 16 -19 0 -8 16 -19 35 -25 44 -14 57 -33
18 -25 -23 4 -21 2 12 -14 l40 -20 -30 -1 c-28 -2 -27 -3 14 -16 60 -19 79
-38 29 -29 -53 10 -48 -2 6 -16 53 -13 86 -43 68 -61 -16 -16 -88 19 -169 84
-51 40 -63 55 -63 78 0 33 -16 49 -23 23 -3 -10 -6 0 -7 22 -2 35 -3 37 -10
15 -7 -22 -8 -20 -10 15 -2 39 -3 39 -10 10 -7 -27 -8 -25 -9 18 0 26 -5 47
-11 47 -5 0 -10 11 -10 24 0 43 -19 38 -23 -6 -3 -33 -4 -27 -7 27 -3 66 -3
68 -9 25 l-7 -45 -9 70 -10 70 -6 -50 c-6 -45 -7 -43 -7 25 0 102 -4 117 -12
45 l-7 -60 -2 80 c-2 55 -5 74 -11 60 -7 -15 -9 -10 -10 25 -2 44 -2 44 -10
12 -11 -45 -17 -49 -25 -13 -4 17 -10 33 -15 36 -9 5 -1 -31 35 -171 29 -110
71 -195 155 -312 33 -46 60 -87 60 -93 0 -20 -49 -7 -77 21 -37 38 -98 156
-123 240 l-20 65 5 -55 c3 -36 16 -78 40 -123 19 -37 35 -73 35 -79 0 -29 -61
51 -95 123 -21 44 -39 78 -41 76 -6 -5 27 -99 43 -122 16 -25 17 -35 0 -35
-15 0 -58 45 -101 103 -45 62 -41 35 4 -33 24 -33 40 -63 37 -66 -14 -15 -45
10 -55 44 -10 36 -11 36 -5 3 4 -25 2 -32 -8 -29 -7 2 -16 15 -20 29 -7 23 -7
22 -9 -6 l-2 -30 -9 33 c-11 38 -23 43 -17 7 3 -14 1 -25 -3 -25 -5 0 -9 11
-9 25 0 14 -5 25 -10 25 -6 0 -8 -12 -5 -27 4 -23 2 -21 -9 7 -13 32 -15 33
-16 10 l-1 -25 -10 23 c-5 13 -13 20 -19 17 -5 -3 -10 0 -10 7 0 10 12 13 43
11 l42 -3 -40 15 c-44 17 -109 75 -132 118 -8 16 -13 30 -11 32 2 2 27 -2 57
-7 44 -9 61 -19 99 -60 25 -26 47 -46 50 -44 2 3 -10 29 -26 58 -35 61 -72
185 -72 240 0 43 -1 42 37 28 27 -10 26 -10 -7 18 -59 49 -120 183 -120 264 0
15 -5 39 -11 55 -8 22 -12 24 -19 13 -25 -39 2 -190 44 -254 7 -12 16 -55 20
-97 4 -42 11 -92 16 -112 9 -41 3 -44 -39 -23 -41 22 -103 95 -127 151 -46
106 -45 105 -37 35 12 -103 8 -142 -20 -197 -31 -59 -76 -101 -89 -81 -12 20
-9 45 6 51 8 3 23 21 32 39 20 38 23 153 5 186 -6 11 -11 44 -11 72 0 30 -9
72 -22 102 l-21 50 23 43 c13 24 28 42 32 39 4 -3 8 -48 8 -100 0 -94 13 -125
26 -59 5 30 9 33 25 24 25 -13 65 -93 84 -166 18 -71 45 -133 57 -133 5 0 0
15 -11 34 -12 18 -21 44 -21 57 0 13 -13 62 -29 108 l-29 83 21 42 c18 34 22
57 21 131 -1 61 -6 101 -17 125 l-17 35 5 -65 c5 -61 5 -64 -9 -40 -20 32 -20
4 -1 -30 8 -14 14 -29 14 -35 0 -5 -7 4 -16 20 -9 17 -18 24 -20 18 -3 -7 3
-23 11 -35 9 -12 16 -27 16 -33 0 -5 -5 -3 -10 5 -5 8 -10 11 -10 5 -1 -5 -11
22 -24 60 -23 70 -55 140 -61 133 -2 -1 10 -41 25 -88 16 -47 32 -110 36 -140
6 -51 5 -54 -10 -35 -8 11 -16 29 -16 40 -1 61 -70 245 -92 245 -11 0 -10 -2
8 -46 27 -64 15 -164 -22 -178 -12 -4 -14 18 -14 134 0 87 4 140 10 140 6 0
10 -4 10 -10 0 -5 4 -10 9 -10 13 0 -7 92 -24 109 -13 14 -15 11 -15 -22 l0
-37 -45 0 c-34 0 -45 4 -45 15 0 12 7 14 26 9 l27 -7 -7 49 c-4 27 -9 57 -12
67 -4 13 1 17 22 17 l28 0 -32 33 c-59 61 -83 175 -44 210 46 42 104 42 161 0z
m-1509 -193 c0 -13 -5 -18 -15 -14 -12 5 -13 10 -4 20 15 19 19 18 19 -6z
m-20 -150 l-11 -25 6 25 c2 14 6 39 6 55 l2 30 4 -30 c2 -17 -1 -42 -7 -55z
m-100 -67 c-11 -17 -11 -17 -6 0 3 10 7 26 7 35 1 15 2 15 6 0 2 -10 -1 -25
-7 -35z m738 20 c-10 -2 -28 -2 -40 0 -13 2 -5 4 17 4 22 1 32 -1 23 -4z m260
0 c-10 -2 -26 -2 -35 0 -10 3 -2 5 17 5 19 0 27 -2 18 -5z m-889 -60 c0 -31
-2 -34 -9 -18 -8 19 -9 18 -11 -5 -2 -24 -2 -24 -6 -2 -2 12 -9 22 -15 22 -5
0 -7 -7 -4 -16 3 -8 2 -12 -4 -9 -14 9 -12 -12 5 -68 13 -44 13 -50 -2 -65
-14 -15 -15 -14 -9 6 4 12 2 47 -5 77 -12 55 -12 56 16 85 37 39 45 38 44 -7z
m1421 -143 l0 -170 -62 0 -63 0 0 -642 0 -643 -23 -47 c-40 -80 -27 -78 -535
-78 l-444 0 -34 23 c-18 12 -44 38 -56 56 l-23 34 0 648 0 649 -70 0 -70 0 0
170 0 170 690 0 690 0 0 -170z m-1505 67 c-4 -18 0 -50 9 -75 13 -37 14 -46 2
-58 -12 -11 -15 -11 -20 2 -3 9 -4 25 0 38 3 12 0 33 -6 46 -10 25 -10 25 -5
-3 4 -19 2 -26 -5 -22 -5 3 -10 0 -10 -9 0 -8 -5 -16 -10 -18 -7 -2 -5 -19 5
-47 20 -58 18 -65 -6 -16 -11 22 -17 30 -15 17 2 -12 0 -20 -5 -16 -12 7 -11
59 2 126 8 41 17 59 33 66 30 13 38 5 31 -31z m-70 1 c-4 -13 -12 -52 -18 -88
-6 -36 -15 -68 -21 -72 -7 -5 -7 -8 2 -8 6 0 12 -8 12 -17 -1 -15 -4 -14 -20
6 -21 25 -27 76 -10 86 6 4 8 15 5 25 -8 26 20 90 41 90 12 0 15 -5 9 -22z
m142 0 c-3 -8 -6 -5 -6 6 -1 11 2 17 5 13 3 -3 4 -12 1 -19z m-10 -171 c-42
-51 -70 -123 -65 -166 3 -32 5 -30 41 42 46 94 62 107 54 46 -3 -24 -4 -38 -1
-31 3 6 15 12 26 12 18 0 19 -4 14 -32 -4 -18 -8 -47 -10 -65 -3 -35 -44 -95
-82 -120 -24 -15 -27 -15 -52 4 -15 11 -35 34 -45 50 -17 30 -17 33 8 109 13
44 42 105 64 137 22 32 48 79 58 105 l18 47 3 -48 c3 -41 -1 -53 -31 -90z
m-90 41 c-3 -8 -6 -5 -6 6 -1 11 2 17 5 13 3 -3 4 -12 1 -19z m-37 -122 c-7
-7 -10 1 -9 25 0 32 1 33 10 10 6 -16 6 -28 -1 -35z m1777 32 c-3 -8 -6 -5 -6
6 -1 11 2 17 5 13 3 -3 4 -12 1 -19z m-1477 -118 c0 -71 -10 -86 -38 -58 -14
14 -16 5 -3 -20 13 -26 32 -84 38 -112 4 -25 4 -25 -21 5 -14 17 -26 36 -26
43 0 7 -7 35 -16 61 -8 27 -14 62 -12 77 3 26 7 29 33 26 28 -3 29 -3 12 16
-23 25 -21 32 8 32 24 0 25 -2 25 -70z m1260 25 c8 -29 11 -71 7 -113 -6 -66
-6 -66 10 -37 21 39 20 122 -1 164 -17 31 -17 33 1 29 36 -7 56 -158 29 -221
-7 -18 -32 -54 -55 -81 -23 -27 -40 -50 -38 -52 11 -11 41 14 86 73 l51 66 0
-44 c0 -62 -37 -124 -73 -124 -15 1 -27 0 -27 -2 0 -1 9 -19 19 -40 24 -46 40
-140 22 -129 -6 4 -11 15 -11 24 -1 33 -58 147 -75 147 -8 0 -20 7 -25 15 -15
23 -12 86 5 100 10 9 15 9 15 1 0 -6 5 -11 11 -11 6 0 8 8 5 18 -3 9 1 39 9
66 12 40 13 57 4 85 -10 29 -9 36 5 47 10 7 13 15 7 18 -13 8 -58 -10 -64 -26
-3 -7 -6 2 -6 20 -1 22 4 32 14 32 8 0 15 5 15 10 0 6 11 10 24 10 19 0 26 -8
36 -45z m-2089 -232 c-39 -77 -76 -140 -83 -140 -7 0 -24 -3 -38 -7 -24 -7
-24 -6 -6 8 11 9 25 16 32 16 7 0 16 5 20 12 5 8 2 9 -9 5 -10 -3 -17 -2 -17
4 0 5 11 14 25 19 28 11 34 22 8 14 -13 -4 -11 -1 3 8 12 7 19 18 17 24 -2 6
6 14 18 17 11 3 18 10 14 16 -3 6 -1 11 5 11 7 0 10 6 7 14 -3 8 1 20 9 26 8
7 14 16 14 21 0 12 44 79 48 74 2 -1 -28 -66 -67 -142z m748 95 c6 -17 9 -33
7 -36 -3 -2 1 -11 9 -19 17 -16 20 -37 5 -28 -6 4 -8 -20 -4 -67 4 -50 1 -94
-9 -138 -16 -69 -15 -91 3 -44 18 45 30 121 30 183 l0 56 20 -25 c36 -46 21
-123 -57 -298 -13 -29 24 2 47 39 21 35 25 38 28 20 5 -32 -53 -121 -78 -121
-31 0 -54 281 -32 386 19 87 -3 67 -26 -23 -14 -53 -23 -120 -23 -168 -1 -66
-5 -87 -26 -122 -14 -24 -29 -43 -33 -43 -30 0 -54 251 -30 314 21 57 30 25
25 -101 l-4 -128 14 125 c7 69 14 128 14 131 1 4 9 9 20 12 10 2 31 30 47 65
16 34 32 61 36 61 3 1 11 -13 17 -31z m1582 -242 c30 -85 89 -159 134 -170 21
-5 22 -9 12 -31 -14 -30 -27 -32 -27 -6 0 11 -5 23 -12 27 -8 5 -9 2 -5 -9 3
-10 4 -17 1 -17 -3 0 -10 14 -16 32 -10 27 -12 29 -18 13 -5 -15 -8 -12 -15
15 -5 25 -9 30 -12 17 -12 -48 -93 139 -93 212 1 32 2 34 12 17 6 -11 24 -56
39 -100z m-2306 27 c-8 -100 -17 -121 -25 -58 l-7 50 -3 -70 c-3 -63 -4 -66
-10 -30 l-7 40 -2 -52 c-1 -70 -19 -77 -24 -11 -3 50 -3 49 -5 -14 -2 -77 -21
-93 -23 -20 -1 29 -4 37 -7 22 -4 -23 -5 -24 -13 -5 -5 14 -8 0 -10 -45 l-2
-65 -7 50 -7 50 -3 -60 -3 -60 -7 45 -7 45 -1 -52 c-3 -70 -20 -77 -25 -11
l-3 53 -4 -60 -3 -60 -7 55 -7 55 -1 -57 c-1 -31 -6 -60 -12 -63 -6 -4 -8 12
-5 42 4 36 2 42 -4 23 -5 -14 -9 -37 -10 -52 -1 -16 -6 -28 -12 -28 -8 0 -9
15 -4 48 l7 47 -20 -23 c-12 -13 -24 -37 -27 -53 -6 -27 -10 -29 -53 -29 -44
1 -46 2 -28 15 11 8 25 15 32 15 14 0 44 27 44 39 0 5 -12 7 -27 5 -19 -3 -13
2 17 13 33 13 40 18 25 21 -16 4 -15 6 10 17 17 8 23 14 15 15 -8 0 -1 7 15
15 l30 14 -30 -4 c-29 -5 -28 -4 7 13 48 23 60 36 28 28 -21 -5 -20 -3 5 9 17
8 35 14 41 15 7 0 15 7 18 16 5 13 0 15 -27 9 -30 -6 -31 -5 -13 10 11 8 24
15 29 15 4 0 6 4 3 9 -6 9 54 35 62 27 2 -3 -5 -17 -15 -33 -11 -15 -26 -39
-32 -53 -22 -45 57 50 106 128 25 39 47 72 49 72 3 0 2 -35 -1 -77z m18 -3
c-3 -11 -7 -20 -9 -20 -2 0 -4 9 -4 20 0 11 4 20 9 20 5 0 7 -9 4 -20z m2057
-165 c10 -16 19 -38 19 -48 1 -15 -2 -16 -20 -7 -24 13 -44 56 -53 115 l-6 40
20 -35 c11 -19 29 -48 40 -65z m387 -87 c-3 -8 -6 -5 -6 6 -1 11 2 17 5 13 3
-3 4 -12 1 -19z m-217 -73 c58 -21 73 -34 59 -51 -8 -10 -8 -14 0 -14 6 0 11
5 11 11 0 18 224 5 283 -16 150 -53 175 -197 54 -315 -61 -60 -226 -148 -239
-127 -17 26 -6 45 40 71 187 107 191 111 212 184 16 52 4 84 -42 112 -37 22
-83 25 -137 9 -47 -14 -87 1 -103 38 l-12 28 -4 -38 c-2 -21 1 -61 7 -88 20
-90 14 -178 -14 -231 -28 -53 -31 -66 -11 -49 11 9 16 2 26 -34 12 -43 51 -85
79 -85 5 0 14 -8 20 -17 9 -17 10 -17 28 0 25 22 76 22 94 0 22 -25 17 -93 -8
-129 -30 -42 -32 -113 -9 -236 18 -91 18 -98 2 -122 -9 -14 -26 -26 -37 -26
-16 0 -19 -4 -15 -16 8 -20 -19 -64 -39 -64 -10 0 -12 -6 -8 -17 6 -16 5 -16
-10 -4 -9 7 -24 10 -33 7 -10 -4 -25 1 -35 10 -10 9 -25 14 -34 11 -19 -8 -20
16 -1 32 8 7 26 9 43 5 22 -5 26 -4 16 6 -16 17 -64 16 -78 -3 -14 -20 -38 -6
-33 19 3 15 12 19 48 19 37 0 45 4 48 20 5 28 15 36 53 44 28 6 33 12 36 39 2
18 -3 70 -12 117 -8 46 -13 96 -9 110 5 20 3 24 -9 19 -12 -4 -17 3 -23 30 -3
20 -10 39 -16 42 -5 3 -6 -6 -3 -23 l6 -28 -15 30 c-11 23 -15 26 -15 11 -1
-20 -1 -20 -16 0 -17 22 -19 15 -5 -20 14 -37 -3 -32 -40 11 -28 31 -31 33
-25 12 4 -13 14 -35 22 -47 8 -13 12 -26 9 -29 -8 -8 -59 15 -96 42 -18 13
-49 27 -71 30 -21 4 -69 22 -106 41 -38 19 -77 34 -88 34 -39 0 -50 15 -36 47
l13 28 23 -28 c28 -31 31 -32 39 -12 3 9 -6 41 -19 71 -33 75 -31 80 6 19 17
-27 28 -41 23 -30 -4 11 -7 28 -8 37 0 9 -3 15 -6 13 -3 -2 -5 10 -6 26 -1 36
-12 49 -24 29 -5 -9 -7 13 -3 55 3 39 5 78 5 88 -1 9 5 17 13 17 7 0 12 10 11
25 0 14 -4 25 -8 25 -5 0 -8 4 -8 9 0 5 9 7 20 4 25 -7 26 5 3 24 -17 13 -16
14 5 8 32 -9 27 7 -8 27 -17 9 -30 22 -30 29 0 8 6 7 18 -3 40 -35 64 -29 42
11 -5 10 -6 31 -1 47 l8 29 7 -28 c3 -15 4 -33 0 -39 -5 -7 -2 -8 5 -3 7 4 11
18 8 31 -3 19 -1 22 9 14 10 -9 11 -6 7 10 -3 11 -9 23 -14 26 -5 3 -9 10 -9
16 0 6 9 3 20 -7 15 -13 20 -14 20 -5 0 11 3 11 12 2 18 -18 38 -15 31 6 -6
15 -4 15 15 -2 28 -24 41 -13 17 14 -23 25 -7 27 55 5z m380 -175 c25 -25 26
-75 2 -113 -20 -32 -187 -147 -213 -147 -23 0 -23 9 -3 119 9 47 18 96 20 109
9 48 154 72 194 32z m-718 -537 l21 -48 10 35 c13 53 24 57 41 16 9 -21 25
-51 37 -68 20 -28 21 -32 7 -42 -10 -8 -14 -21 -11 -38 3 -17 -1 -30 -12 -39
-82 -65 -118 -123 -135 -220 -17 -91 -30 -114 -64 -112 -32 2 -31 -16 2 -33
16 -8 19 -13 10 -22 -20 -20 -55 -14 -63 11 -4 12 -7 25 -6 30 2 13 -17 7 -23
-8 -3 -8 -13 -15 -22 -15 -12 0 -15 6 -10 24 3 14 3 32 0 40 -7 18 -45 21 -60
6 -7 -7 -15 -2 -23 17 -7 16 -17 36 -22 45 -11 23 1 29 64 34 53 4 112 9 134
12 19 3 43 45 57 99 7 26 16 58 20 70 6 18 -1 27 -38 52 -26 18 -48 43 -55 62
-16 47 -13 69 5 37 8 -16 16 -28 19 -28 11 0 -1 47 -15 57 -13 11 -13 14 0 23
9 6 10 10 3 10 -7 0 -17 -8 -23 -17 -9 -16 -10 -15 -8 7 2 15 10 26 22 28 21
4 38 -16 31 -36 -3 -7 -1 -11 4 -7 5 3 14 -7 19 -22 10 -28 10 -27 11 10 1 32
28 77 47 77 3 0 15 -21 26 -47z m303 -33 c3 -5 -2 -21 -11 -35 -15 -23 -16
-33 -6 -76 18 -75 14 -119 -11 -164 -19 -33 -22 -47 -14 -74 4 -18 5 -41 1
-50 -5 -12 -9 -9 -14 14 -7 27 -8 26 -9 -15 l-2 -45 -15 28 c-8 15 -20 27 -27
27 -8 0 -8 -3 2 -9 11 -7 10 -13 -4 -35 -10 -14 -24 -26 -31 -26 -8 0 -14 -6
-14 -13 0 -8 -7 -14 -15 -14 -8 0 -15 3 -15 5 0 10 54 98 82 134 16 20 36 61
45 90 13 45 14 64 4 125 -10 58 -10 80 0 108 13 34 40 47 54 25z m-535 -470
c0 -5 -2 -10 -4 -10 -3 0 -8 5 -11 10 -3 6 -1 10 4 10 6 0 11 -4 11 -10z m362
-45 c0 -5 -5 -11 -11 -13 -6 -2 -11 4 -11 13 0 9 5 15 11 13 6 -2 11 -8 11
-13z"/>
<path d="M2574 3739 c-10 -12 -31 -27 -45 -35 -15 -7 -32 -28 -38 -45 -14 -40
-14 -39 3 -39 18 0 106 106 106 126 0 19 -3 18 -26 -7z"/>
<path d="M2210 3560 c-21 -16 -22 -20 -7 -20 10 0 22 -11 27 -25 10 -25 43
-34 55 -15 3 6 19 10 35 10 42 0 45 15 7 44 -40 31 -83 33 -117 6z m50 -40 c0
-5 -4 -10 -10 -10 -5 0 -10 5 -10 10 0 6 5 10 10 10 6 0 10 -4 10 -10z"/>
<path d="M2080 3560 c0 -15 38 -32 45 -20 3 5 3 15 0 20 -8 13 -45 13 -45 0z"/>
<path d="M2396 3530 c10 -21 19 -30 22 -21 2 7 -6 23 -18 35 l-22 21 18 -35z"/>
<path d="M2436 3445 c11 -46 26 -67 19 -25 -3 19 -10 39 -16 45 -7 7 -8 1 -3
-20z"/>
<path d="M2360 3400 c0 -5 5 -10 11 -10 5 0 7 5 4 10 -3 6 -8 10 -11 10 -2 0
-4 -4 -4 -10z"/>
<path d="M2441 3364 c0 -11 3 -14 6 -6 3 7 2 16 -1 19 -3 4 -6 -2 -5 -13z"/>
<path d="M2406 3361 c-4 -7 -5 -15 -2 -18 9 -9 19 4 14 18 -4 11 -6 11 -12 0z"/>
<path d="M2471 3344 c0 -11 3 -14 6 -6 3 7 2 16 -1 19 -3 4 -6 -2 -5 -13z"/>
<path d="M2501 3283 c0 -31 2 -34 9 -18 12 28 12 55 0 55 -5 0 -10 -17 -9 -37z"/>
<path d="M2403 3294 c-3 -8 -1 -20 6 -27 8 -8 11 -4 11 16 0 30 -7 35 -17 11z"/>
<path d="M2530 3251 c0 -25 6 -27 13 -6 4 8 2 17 -3 20 -6 4 -10 -3 -10 -14z"/>
<path d="M2335 3250 c3 -5 8 -10 11 -10 2 0 4 5 4 10 0 6 -5 10 -11 10 -5 0
-7 -4 -4 -10z"/>
<path d="M2468 3240 c-11 -38 -10 -56 3 -43 6 6 9 23 7 39 l-3 29 -7 -25z"/>
<path d="M2413 3233 c9 -9 20 -13 24 -9 4 4 1 11 -7 16 -25 16 -35 11 -17 -7z"/>
<path d="M2391 3184 c14 -17 32 -19 27 -2 -2 6 -12 12 -22 14 -14 2 -15 0 -5
-12z"/>
<path d="M2232 3165 c-17 -37 -14 -45 4 -12 9 16 14 31 11 33 -2 2 -9 -7 -15
-21z"/>
<path d="M2292 3145 c-7 -15 -11 -30 -8 -32 7 -7 28 36 24 49 -2 6 -9 -2 -16
-17z"/>
<path d="M2450 3160 c0 -5 5 -10 10 -10 6 0 10 5 10 10 0 6 -4 10 -10 10 -5 0
-10 -4 -10 -10z"/>
<path d="M2400 3129 c0 -5 5 -7 10 -4 6 3 10 8 10 11 0 2 -4 4 -10 4 -5 0 -10
-5 -10 -11z"/>
<path d="M2470 3131 c0 -5 -3 -18 -6 -28 -5 -16 -4 -16 10 1 18 23 20 36 6 36
-5 0 -10 -4 -10 -9z"/>
<path d="M1691 3304 c0 -11 3 -14 6 -6 3 7 2 16 -1 19 -3 4 -6 -2 -5 -13z"/>
<path d="M1650 3290 c0 -5 5 -10 10 -10 6 0 10 5 10 10 0 6 -4 10 -10 10 -5 0
-10 -4 -10 -10z"/>
<path d="M1650 3164 c0 -8 5 -12 10 -9 6 4 8 11 5 16 -9 14 -15 11 -15 -7z"/>
<path d="M1201 2901 c-14 -4 -26 -12 -29 -19 -6 -18 13 -15 39 8 26 21 26 21
-10 11z"/>
<path d="M1100 2864 c0 -8 5 -12 10 -9 6 4 8 11 5 16 -9 14 -15 11 -15 -7z"/>
<path d="M1130 2870 c0 -5 5 -10 10 -10 6 0 10 5 10 10 0 6 -4 10 -10 10 -5 0
-10 -4 -10 -10z"/>
<path d="M1165 2841 c-6 -11 9 -23 19 -14 9 9 7 23 -3 23 -6 0 -12 -4 -16 -9z"/>
<path d="M1145 2790 c-3 -5 1 -10 9 -10 9 0 16 5 16 10 0 6 -4 10 -9 10 -6 0
-13 -4 -16 -10z"/>
<path d="M1130 2745 c0 -8 5 -15 10 -15 6 0 10 7 10 15 0 8 -4 15 -10 15 -5 0
-10 -7 -10 -15z"/>
<path d="M1110 2705 c0 -8 5 -15 10 -15 6 0 10 7 10 15 0 8 -4 15 -10 15 -5 0
-10 -7 -10 -15z"/>
<path d="M1085 2640 c-3 -5 -1 -10 4 -10 6 0 11 5 11 10 0 6 -2 10 -4 10 -3 0
-8 -4 -11 -10z"/>
<path d="M1172 2635 c-7 -8 -9 -15 -4 -15 5 0 15 7 22 15 16 19 -1 19 -18 0z"/>
<path d="M1220 2470 c0 -5 5 -10 10 -10 6 0 10 5 10 10 0 6 -4 10 -10 10 -5 0
-10 -4 -10 -10z"/>
<path d="M1070 2414 c0 -8 5 -12 10 -9 6 4 8 11 5 16 -9 14 -15 11 -15 -7z"/>
<path d="M1260 2396 c0 -12 -2 -52 -5 -87 -4 -49 -3 -56 4 -30 17 63 23 141
12 141 -6 0 -11 -11 -11 -24z"/>
<path d="M1230 2384 c0 -14 -4 -23 -10 -19 -6 4 -9 -15 -9 -52 2 -56 2 -56 9
-18 l7 40 3 -35 2 -35 9 40 c11 56 11 105 -1 105 -5 0 -10 -12 -10 -26z"/>
<path d="M1292 2350 c0 -19 2 -27 5 -17 2 9 2 25 0 35 -3 9 -5 1 -5 -18z"/>
<path d="M931 2354 c0 -11 3 -14 6 -6 3 7 2 16 -1 19 -3 4 -6 -2 -5 -13z"/>
<path d="M1020 2326 c0 -8 -6 -16 -12 -19 -7 -2 -10 -7 -7 -11 3 -3 14 -4 23
0 17 7 23 44 6 44 -5 0 -10 -6 -10 -14z"/>
<path d="M1060 2330 c0 -5 5 -10 10 -10 6 0 10 5 10 10 0 6 -4 10 -10 10 -5 0
-10 -4 -10 -10z"/>
<path d="M1277 2207 c-28 -81 -30 -95 -8 -57 17 32 39 110 30 110 -2 0 -12
-24 -22 -53z"/>
<path d="M1236 2178 c-61 -132 -86 -193 -86 -208 1 -19 38 26 71 84 19 34 20
38 4 26 -17 -14 -17 -13 -11 10 4 14 19 48 33 77 14 29 23 57 21 63 -2 6 -16
-18 -32 -52z"/>
<path d="M900 2220 c0 -5 5 -10 10 -10 6 0 10 5 10 10 0 6 -4 10 -10 10 -5 0
-10 -4 -10 -10z"/>
<path d="M903 2132 c-18 -31 -49 -85 -68 -119 -20 -35 -34 -63 -32 -63 3 0 31
44 62 98 32 53 65 107 73 120 8 12 10 22 6 22 -5 0 -23 -26 -41 -58z"/>
<path d="M1042 2100 c-52 -82 -56 -106 -6 -47 27 32 69 115 62 123 -2 2 -27
-32 -56 -76z"/>
<path d="M910 2090 c0 -5 5 -10 10 -10 6 0 10 5 10 10 0 6 -4 10 -10 10 -5 0
-10 -4 -10 -10z"/>
<path d="M780 1920 c-6 -11 -8 -20 -6 -20 3 0 10 9 16 20 6 11 8 20 6 20 -3 0
-10 -9 -16 -20z"/>
<path d="M3012 3345 c26 -37 30 -49 21 -63 -6 -9 -18 -16 -27 -16 -22 2 -10
-13 25 -32 36 -18 59 -6 59 31 0 37 -73 125 -104 125 -3 0 9 -20 26 -45z"/>
<path d="M2860 3284 c0 -8 5 -12 10 -9 6 4 8 11 5 16 -9 14 -15 11 -15 -7z"/>
<path d="M3060 3204 c0 -11 34 -33 50 -33 10 -1 6 6 -10 19 -26 20 -40 25 -40
14z"/>
<path d="M2987 3166 c-13 -33 -7 -115 10 -153 10 -21 30 -55 46 -76 16 -21 37
-59 48 -85 l18 -47 1 43 c0 24 -5 63 -11 87 -16 65 -6 74 21 20 24 -45 94
-114 105 -103 3 2 -11 44 -30 92 -20 48 -38 107 -42 132 -7 52 -23 69 -23 25
0 -18 -5 -31 -12 -31 -9 -1 -8 -4 2 -13 8 -7 25 -40 37 -75 20 -59 20 -62 2
-46 -10 9 -28 42 -39 73 -29 77 -60 140 -73 148 -7 4 -8 0 -3 -13 29 -71 36
-102 28 -125 -8 -20 -10 -15 -18 36 l-8 60 -7 -40 c-6 -39 -6 -39 -8 14 0 30
-4 51 -8 47 -4 -3 -12 6 -18 21 -10 24 -12 25 -18 9z"/>
<path d="M3076 3157 c4 -12 11 -24 15 -25 5 -2 7 -7 4 -12 -3 -4 3 -14 13 -21
15 -12 15 -12 5 1 -17 22 -16 34 1 40 11 4 8 9 -15 22 -30 18 -30 18 -23 -5z"/>
<path d="M3312 2840 c45 -63 108 -198 108 -234 0 -6 -20 23 -44 65 -24 41 -65
97 -90 125 l-46 49 44 -95 c24 -52 57 -124 74 -159 23 -49 28 -69 21 -83 -5
-10 -14 -18 -20 -18 -13 0 -39 62 -40 97 0 15 -5 37 -10 48 -6 14 -8 -1 -5
-50 3 -74 28 -140 59 -159 25 -16 39 9 32 59 l-5 40 20 -25 c41 -50 78 -137
99 -235 12 -55 26 -113 31 -130 l8 -30 1 30 c0 40 -27 165 -78 355 -45 168
-111 318 -157 360 l-27 25 25 -35z"/>
<path d="M3175 2513 c4 -10 14 -43 21 -73 14 -57 33 -100 44 -100 11 0 -27
138 -44 165 -19 29 -32 33 -21 8z"/>
<path d="M3412 2433 c-27 -48 -4 -148 49 -212 19 -22 37 -41 41 -41 4 0 -9 34
-29 76 -24 50 -38 98 -42 138 -6 55 -8 59 -19 39z"/>
<path d="M3350 2322 c0 -53 88 -203 136 -233 48 -29 54 -17 10 21 -21 19 -53
66 -77 115 -37 77 -69 122 -69 97z"/>
<path d="M3570 2100 c0 -5 5 -10 11 -10 5 0 7 5 4 10 -3 6 -8 10 -11 10 -2 0
-4 -4 -4 -10z"/>
<path d="M2650 2855 c0 -8 2 -15 4 -15 2 0 6 7 10 15 3 8 1 15 -4 15 -6 0 -10
-7 -10 -15z"/>
<path d="M2321 2844 c0 -11 3 -14 6 -6 3 7 2 16 -1 19 -3 4 -6 -2 -5 -13z"/>
<path d="M2351 2734 c0 -11 3 -14 6 -6 3 7 2 16 -1 19 -3 4 -6 -2 -5 -13z"/>
<path d="M1872 2720 c0 -14 2 -19 5 -12 2 6 2 18 0 25 -3 6 -5 1 -5 -13z"/>
<path d="M2072 2710 c0 -14 2 -19 5 -12 2 6 2 18 0 25 -3 6 -5 1 -5 -13z"/>
<path d="M2410 2445 c25 -14 56 -33 70 -43 13 -9 21 -11 16 -4 -9 14 -106 72
-121 71 -5 0 10 -11 35 -24z"/>
<path d="M2012 2202 c-9 -3 -12 -43 -12 -143 l0 -139 210 0 210 0 0 140 c0
138 0 140 -22 140 -13 0 -65 3 -115 7 -66 4 -93 2 -93 -6 0 -7 35 -11 110 -11
l110 0 0 -130 0 -130 -192 2 -193 3 -3 128 -3 127 81 0 c44 0 80 4 80 9 0 9
-142 12 -168 3z"/>
<path d="M2555 2140 c-3 -5 -1 -10 4 -10 6 0 11 5 11 10 0 6 -2 10 -4 10 -3 0
-8 -4 -11 -10z"/>
<path d="M2208 2059 c-32 -32 -58 -62 -58 -68 0 -20 25 -11 35 12 7 16 19 22
41 22 39 1 70 23 54 39 -8 8 -16 4 -29 -13 -10 -13 -21 -19 -24 -14 -8 12 47
66 56 56 4 -3 7 1 7 10 0 28 -22 16 -82 -44z"/>
<path d="M1831 2088 c-8 -23 -4 -49 8 -47 19 2 66 38 69 52 3 13 -4 17 -33 17
-28 0 -37 -5 -44 -22z"/>
<path d="M2186 2093 c-3 -10 -9 -25 -12 -33 -3 -8 0 -7 6 3 6 9 18 17 25 17 8
0 15 7 15 15 0 21 -26 19 -34 -2z"/>
<path d="M1780 1958 c1 -128 69 -275 165 -354 23 -19 45 -34 48 -34 11 0 -7
46 -31 77 -66 88 -105 197 -100 278 l4 64 -37 20 c-20 12 -39 21 -43 21 -3 0
-6 -33 -6 -72z"/>
<path d="M2660 2000 c-10 -6 -11 -10 -2 -10 18 0 15 -34 -7 -62 -11 -14 -23
-49 -27 -79 -6 -54 -37 -120 -81 -172 -12 -16 -23 -26 -23 -23 0 5 -62 -33
-86 -52 -26 -23 -129 -52 -182 -52 -57 -1 -67 1 -152 19 -97 21 -63 -38 37
-64 72 -19 111 -19 192 0 84 20 156 62 218 128 56 59 67 78 77 127 3 19 15 44
26 55 20 21 40 106 40 168 0 29 -6 32 -30 17z"/>
<path d="M2093 1833 c70 -2 184 -2 255 0 70 1 12 3 -128 3 -140 0 -198 -2
-127 -3z"/>
<path d="M1980 1530 c0 -14 71 -48 115 -54 22 -3 33 -3 25 0 -8 4 -43 19 -77
35 -35 15 -63 24 -63 19z"/>
<path d="M2385 1494 c-54 -22 -56 -24 -20 -18 38 5 95 29 95 39 0 8 -12 5 -75
-21z"/>
<path d="M1411 2754 c0 -11 3 -14 6 -6 3 7 2 16 -1 19 -3 4 -6 -2 -5 -13z"/>
<path d="M1500 2540 c0 -5 5 -10 11 -10 5 0 7 5 4 10 -3 6 -8 10 -11 10 -2 0
-4 -4 -4 -10z"/>
<path d="M1450 2530 c0 -5 5 -10 10 -10 6 0 10 5 10 10 0 6 -4 10 -10 10 -5 0
-10 -4 -10 -10z"/>
<path d="M1470 2485 c0 -8 5 -15 10 -15 6 0 10 7 10 15 0 8 -4 15 -10 15 -5 0
-10 -7 -10 -15z"/>
<path d="M1391 2444 c0 -11 3 -14 6 -6 3 7 2 16 -1 19 -3 4 -6 -2 -5 -13z"/>
<path d="M1440 2453 c0 -5 7 -18 15 -29 12 -16 14 -16 15 -3 0 9 -7 22 -15 29
-8 7 -15 8 -15 3z"/>
<path d="M2930 2240 c0 -5 5 -10 10 -10 6 0 10 5 10 10 0 6 -4 10 -10 10 -5 0
-10 -4 -10 -10z"/>
<path d="M1450 2130 c0 -5 5 -10 10 -10 6 0 10 5 10 10 0 6 -4 10 -10 10 -5 0
-10 -4 -10 -10z"/>
<path d="M3060 1820 c0 -5 5 -10 10 -10 6 0 10 5 10 10 0 6 -4 10 -10 10 -5 0
-10 -4 -10 -10z"/>
<path d="M3035 1780 c-3 -5 -1 -10 4 -10 6 0 11 5 11 10 0 6 -2 10 -4 10 -3 0
-8 -4 -11 -10z"/>
<path d="M2976 1755 c4 -8 11 -15 16 -15 6 0 5 6 -2 15 -7 8 -14 15 -16 15 -2
0 -1 -7 2 -15z"/>
<path d="M3010 1740 c0 -5 5 -10 10 -10 6 0 10 5 10 10 0 6 -4 10 -10 10 -5 0
-10 -4 -10 -10z"/>
<path d="M3036 1685 c3 -22 7 -49 8 -59 1 -11 8 -22 15 -24 14 -5 14 -4 -14
79 l-15 44 6 -40z"/>
<path d="M3126 1701 c-4 -5 -2 -12 3 -15 5 -4 12 -2 15 3 4 5 2 12 -3 15 -5 4
-12 2 -15 -3z"/>
<path d="M2914 1693 c2 -3 -5 -26 -16 -51 -30 -68 -30 -199 -1 -264 45 -98
171 -197 217 -171 13 7 4 13 -39 27 -64 20 -102 63 -132 149 -19 56 -25 226
-10 283 7 25 6 31 -7 31 -9 0 -14 -2 -12 -4z"/>
<path d="M3010 1672 c0 -7 -4 -10 -10 -7 -16 10 -12 -7 9 -38 15 -24 19 -26
25 -12 3 9 -1 28 -9 43 -8 15 -14 21 -15 14z m20 -47 c0 -5 -5 -3 -10 5 -5 8
-10 20 -10 25 0 6 5 3 10 -5 5 -8 10 -19 10 -25z"/>
<path d="M3179 1655 c-1 -3 -2 -8 -3 -12 -1 -5 -5 -14 -9 -20 -5 -7 -5 -13 -1
-13 8 0 33 32 34 43 0 8 -19 10 -21 2z"/>
<path d="M2974 1635 c3 -8 1 -15 -4 -15 -5 0 -7 -18 -5 -40 2 -24 -1 -40 -7
-40 -7 0 -7 -5 1 -14 6 -7 9 -20 6 -28 -3 -8 1 -20 8 -27 23 -19 30 15 10 47
l-17 27 24 -20 24 -20 -23 40 -23 40 24 -29 c24 -29 25 -29 30 -8 6 23 -29
102 -46 102 -4 0 -6 -7 -2 -15z"/>
<path d="M3132 1625 c0 -16 2 -22 5 -12 2 9 2 23 0 30 -3 6 -5 -1 -5 -18z"/>
<path d="M3196 1611 c-4 -5 -2 -12 3 -15 5 -4 12 -2 15 3 4 5 2 12 -3 15 -5 4
-12 2 -15 -3z"/>
<path d="M3080 1595 c0 -11 5 -27 10 -35 8 -12 10 -12 10 5 0 11 -5 27 -10 35
-8 12 -10 12 -10 -5z"/>
<path d="M3142 1581 c4 -13 18 -16 19 -4 0 4 -5 9 -11 12 -7 2 -11 -2 -8 -8z"/>
<path d="M3136 1514 c-11 -28 -6 -39 9 -20 8 11 15 23 15 28 0 14 -18 9 -24
-8z"/>
<path d="M3057 1501 c-3 -11 2 -28 10 -38 14 -17 14 -17 10 5 -3 12 -1 20 4
16 14 -9 10 12 -5 25 -11 9 -15 7 -19 -8z"/>
<path d="M3196 1493 c-6 -14 -5 -15 5 -6 7 7 10 15 7 18 -3 3 -9 -2 -12 -12z"/>
<path d="M3150 1458 c-12 -22 -12 -22 6 -6 10 10 15 20 12 24 -4 3 -12 -5 -18
-18z"/>
<path d="M3020 1449 c0 -18 58 -80 65 -69 3 5 -10 26 -30 45 -19 20 -35 30
-35 24z"/>
<path d="M3160 1335 c0 -39 16 -55 55 -55 l30 1 -27 15 c-15 8 -34 27 -42 42
l-15 27 -1 -30z"/>
<path d="M3347 1244 c-3 -3 -3 -13 0 -22 4 -10 2 -13 -5 -8 -6 3 -14 1 -18 -5
-4 -8 -3 -9 4 -5 15 9 15 1 1 -27 -7 -15 -2 -12 15 8 28 33 32 45 15 45 -5 0
-7 5 -4 10 7 11 2 14 -8 4z"/>
<path d="M3414 1237 c3 -10 6 -26 6 -35 1 -15 2 -15 11 2 9 14 7 22 -6 35 -17
15 -17 15 -11 -2z"/>
<path d="M3364 1188 l-17 -33 22 19 c23 21 27 16 9 -17 -11 -21 -10 -21 7 -7
17 14 18 13 12 -4 -6 -16 -5 -17 8 -6 12 10 13 15 4 20 -6 4 -9 12 -6 16 3 5
-1 17 -8 28 -13 17 -15 16 -31 -16z"/>
<path d="M3371 968 c1 -88 3 -96 9 -53 12 72 12 143 0 150 -6 4 -10 -30 -9
-97z"/>
<path d="M2686 838 c-10 -62 -13 -148 -5 -148 4 0 10 28 14 63 3 34 8 74 11
90 3 15 1 27 -5 27 -5 0 -12 -15 -15 -32z"/>
<path d="M2466 741 c-4 -6 -2 -11 4 -11 6 0 8 -5 5 -10 -5 -7 17 -10 66 -8 78
3 108 23 37 24 -24 0 -57 4 -74 8 -20 5 -34 4 -38 -3z"/>
<path d="M2631 706 c-7 -8 -26 -18 -43 -21 -22 -5 -27 -10 -19 -18 14 -14 81
17 81 38 0 19 -4 19 -19 1z"/>
<path d="M2356 711 c-3 -5 1 -11 9 -14 9 -4 12 -1 8 9 -6 16 -10 17 -17 5z"/>
<path d="M3275 571 c-3 -5 -1 -12 5 -16 5 -3 10 1 10 9 0 18 -6 21 -15 7z"/>
</g>
</svg>
